<svg width="24" height="24" viewBox="0 0 24 24" fill="none" xmlns="http://www.w3.org/2000/svg">
<g id="lucide/brain-circuit">
<path id="Vector" d="M6.00283 5.12505C5.98499 4.72548 6.04722 4.32637 6.18588 3.9512C6.32454 3.57604 6.53682 3.23238 6.81023 2.94045C7.08365 2.64853 7.41268 2.41422 7.77797 2.25132C8.14326 2.08841 8.53744 2.0002 8.93733 1.99186C9.33721 1.98353 9.73472 2.05524 10.1065 2.20278C10.4783 2.35032 10.8168 2.57072 11.1021 2.851C11.3874 3.13128 11.6139 3.46579 11.768 3.83485C11.9222 4.20391 12.001 4.60008 11.9998 5.00005V18M6.00283 5.12505C5.41503 5.27619 4.86933 5.5591 4.40706 5.95236C3.94479 6.34562 3.57807 6.83892 3.33467 7.3949C3.09128 7.95087 2.97759 8.55494 3.00222 9.16136C3.02685 9.76778 3.18915 10.3606 3.47683 10.8951M6.00283 5.12505C6.02261 5.60878 6.15916 6.08055 6.40083 6.50005M3.47683 10.8951C2.97101 11.306 2.57326 11.8343 2.31817 12.434C2.06308 13.0337 1.95839 13.6866 2.01319 14.336C2.068 14.9854 2.28065 15.6116 2.63264 16.1601C2.98462 16.7085 3.46529 17.1627 4.03283 17.4831M3.47683 10.8951C3.65977 10.7461 3.85553 10.6145 4.06183 10.5001M4.03283 17.4831C3.96275 18.0253 4.00457 18.5761 4.15572 19.1016C4.30686 19.627 4.56413 20.1159 4.91161 20.538C5.2591 20.9601 5.68944 21.3065 6.17605 21.5558C6.66266 21.8051 7.19521 21.952 7.74081 21.9874C8.28641 22.0228 8.83347 21.946 9.34822 21.7617C9.86296 21.5774 10.3345 21.2895 10.7336 20.9158C11.1327 20.5421 11.451 20.0906 11.6688 19.5891C11.8866 19.0876 11.9992 18.5468 11.9998 18M4.03283 17.4831C4.6331 17.8216 5.31066 18.0004 5.99983 18.0001M11.9998 18H17.9998C18.5303 18 19.039 18.2108 19.414 18.5858C19.7891 18.9609 19.9998 19.4696 19.9998 20V21M8.99983 13.0001C9.83939 12.7047 10.5725 12.167 11.1065 11.4551C11.6405 10.7431 11.9514 9.88872 11.9998 9.00005M11.9998 13.0001H15.9998M11.9998 8.00005H19.9998M15.9998 8.00005V5.00005C15.9998 4.46962 16.2105 3.96091 16.5856 3.58584C16.9607 3.21076 17.4694 3.00005 17.9998 3.00005M16.4998 13.0001C16.4998 13.2762 16.276 13.5001 15.9998 13.5001C15.7237 13.5001 15.4998 13.2762 15.4998 13.0001C15.4998 12.7239 15.7237 12.5001 15.9998 12.5001C16.276 12.5001 16.4998 12.7239 16.4998 13.0001ZM18.4998 3.00005C18.4998 3.27619 18.276 3.50005 17.9998 3.50005C17.7237 3.50005 17.4998 3.27619 17.4998 3.00005C17.4998 2.72391 17.7237 2.50005 17.9998 2.50005C18.276 2.50005 18.4998 2.72391 18.4998 3.00005ZM20.4998 21C20.4998 21.2762 20.276 21.5 19.9998 21.5C19.7237 21.5 19.4998 21.2762 19.4998 21C19.4998 20.7239 19.7237 20.5 19.9998 20.5C20.276 20.5 20.4998 20.7239 20.4998 21ZM20.4998 8.00005C20.4998 8.27619 20.276 8.50005 19.9998 8.50005C19.7237 8.50005 19.4998 8.27619 19.4998 8.00005C19.4998 7.72391 19.7237 7.50005 19.9998 7.50005C20.276 7.50005 20.4998 7.72391 20.4998 8.00005Z" stroke="#1C75BC" stroke-width="2" stroke-linecap="round" stroke-linejoin="round"/>
</g>
</svg>
