<svg width="24" height="25" viewBox="0 0 24 25" fill="none" xmlns="http://www.w3.org/2000/svg">
<g id="lucide/file-chart-pie">
<path id="Vector" d="M13.9999 2.97656V6.97656C13.9999 7.507 14.2107 8.0157 14.5857 8.39078C14.9608 8.76585 15.4695 8.97656 15.9999 8.97656H19.9999M15.9999 22.9766H17.9999C18.5304 22.9766 19.0391 22.7658 19.4142 22.3908C19.7892 22.0157 19.9999 21.507 19.9999 20.9766V7.97656L14.9999 2.97656H5.99995C5.46952 2.97656 4.96081 3.18728 4.58574 3.56235C4.21066 3.93742 3.99995 4.44613 3.99995 4.97656V8.47656M4.01695 12.4886C3.40532 13.0313 2.9111 13.6934 2.56464 14.4342C2.21818 15.1749 2.02679 15.9786 2.00222 16.796C1.97765 17.6134 2.12043 18.4271 2.42178 19.1873C2.72313 19.9475 3.17669 20.6381 3.75462 21.2166C4.33254 21.7952 5.02263 22.2495 5.7825 22.5516C6.54238 22.8538 7.35599 22.9974 8.1734 22.9737C8.9908 22.95 9.79472 22.7595 10.5358 22.4138C11.2769 22.0681 11.9395 21.5746 12.4829 20.9636M8.99995 16.9766C8.73473 16.9766 8.48038 16.8712 8.29284 16.6837C8.10531 16.4961 7.99995 16.2418 7.99995 15.9766V11.9766C7.99995 11.4246 8.44995 10.9686 8.99495 11.0596C10.2253 11.2664 11.3605 11.8517 12.2427 12.7339C13.1248 13.616 13.7101 14.7513 13.9169 15.9816C14.0079 16.5256 13.5519 16.9766 12.9999 16.9766H8.99995Z" stroke="#1C75BC" stroke-width="2" stroke-linecap="round" stroke-linejoin="round"/>
</g>
</svg>
