<svg width="32" height="32" viewBox="0 0 32 32" fill="none" xmlns="http://www.w3.org/2000/svg">
<g id="lucide/pencil">
<path id="Vector" d="M19.9997 6.66665L25.3331 12M28.2317 9.08265C28.9367 8.37788 29.3328 7.42194 29.3329 6.42512C29.333 5.4283 28.9372 4.47226 28.2324 3.76731C27.5276 3.06237 26.5717 2.66626 25.5749 2.66614C24.5781 2.66601 23.622 3.06188 22.9171 3.76665L5.12242 21.5653C4.81284 21.874 4.5839 22.254 4.45575 22.672L2.69442 28.4746C2.65996 28.59 2.65735 28.7124 2.68688 28.8291C2.71641 28.9458 2.77698 29.0523 2.86214 29.1373C2.94731 29.2223 3.05391 29.2827 3.17063 29.3121C3.28734 29.3414 3.40983 29.3386 3.52508 29.304L9.32908 27.544C9.74664 27.417 10.1266 27.1894 10.4357 26.8813L28.2317 9.08265Z" stroke="#C86AB7" stroke-width="2.66667" stroke-linecap="round" stroke-linejoin="round"/>
</g>
</svg>
