<svg width="24" height="25" viewBox="0 0 24 25" fill="none" xmlns="http://www.w3.org/2000/svg">
<g id="lucide/pointer">
<path id="Vector" d="M10.0001 10.5V9.5C10.0001 8.96957 10.2108 8.46086 10.5859 8.08579C10.961 7.71071 11.4697 7.5 12.0001 7.5C12.5305 7.5 13.0392 7.71071 13.4143 8.08579C13.7894 8.46086 14.0001 8.96957 14.0001 9.5V10.5C14.0001 9.96957 14.2108 9.46086 14.5859 9.08579C14.961 8.71071 15.4697 8.5 16.0001 8.5C16.5305 8.5 17.0392 8.71071 17.4143 9.08579C17.7894 9.46086 18.0001 9.96957 18.0001 10.5V11.5C18.0001 10.9696 18.2108 10.4609 18.5859 10.0858C18.961 9.71071 19.4697 9.5 20.0001 9.5C20.5305 9.5 21.0392 9.71071 21.4143 10.0858C21.7894 10.4609 22.0001 10.9696 22.0001 11.5V14.5C22.0001 16.6217 21.1572 18.6566 19.657 20.1569C18.1567 21.6571 16.1218 22.5 14.0001 22.5H12.0001C9.2001 22.5 7.5001 21.64 6.0101 20.16L2.4101 16.56C2.06604 16.1789 1.88169 15.6802 1.89523 15.1669C1.90876 14.6537 2.11915 14.1653 2.48282 13.803C2.8465 13.4406 3.3356 13.2319 3.84888 13.2202C4.36215 13.2085 4.86027 13.3946 5.2401 13.74L7.0001 15.5M10.0001 10V4.5C10.0001 3.96957 9.78939 3.46086 9.41432 3.08579C9.03924 2.71071 8.53054 2.5 8.0001 2.5C7.46967 2.5 6.96096 2.71071 6.58589 3.08579C6.21082 3.46086 6.0001 3.96957 6.0001 4.5V14.5" stroke="#1C75BC" stroke-width="2" stroke-linecap="round" stroke-linejoin="round"/>
</g>
</svg>
