<svg width="56" height="56" viewBox="0 0 56 56" fill="none" xmlns="http://www.w3.org/2000/svg">
<g id="lucide/shield-check">
<path id="Vector" d="M21 27.9999L25.6667 32.6666L35 23.3332M46.6667 30.3332C46.6667 41.9999 38.5 47.8332 28.7933 51.2166C28.2851 51.3888 27.7329 51.3806 27.23 51.1932C17.5 47.8332 9.33334 41.9999 9.33334 30.3332V13.9999C9.33334 13.3811 9.57918 12.7876 10.0168 12.35C10.4543 11.9124 11.0478 11.6666 11.6667 11.6666C16.3333 11.6666 22.1667 8.86658 26.2267 5.31991C26.721 4.89757 27.3498 4.66553 28 4.66553C28.6502 4.66553 29.279 4.89757 29.7733 5.31991C33.8567 8.88991 39.6667 11.6666 44.3333 11.6666C44.9522 11.6666 45.5457 11.9124 45.9833 12.35C46.4208 12.7876 46.6667 13.3811 46.6667 13.9999V30.3332Z" stroke="#161616" stroke-width="2" stroke-linecap="round" stroke-linejoin="round"/>
</g>
</svg>
