<svg width="24" height="24" viewBox="0 0 24 24" fill="none" xmlns="http://www.w3.org/2000/svg">
<g id="weui:location-filled">
<path id="Vector" fill-rule="evenodd" clip-rule="evenodd" d="M11.2619 22.134C11.2619 22.134 3.99988 16.018 3.99988 10C3.99988 7.87827 4.84273 5.84344 6.34302 4.34315C7.84331 2.84285 9.87815 2 11.9999 2C14.1216 2 16.1564 2.84285 17.6567 4.34315C19.157 5.84344 19.9999 7.87827 19.9999 10C19.9999 16.018 12.7379 22.134 12.7379 22.134C12.3339 22.506 11.6689 22.502 11.2619 22.134ZM11.9999 13.5C12.4595 13.5 12.9146 13.4095 13.3393 13.2336C13.7639 13.0577 14.1497 12.7999 14.4748 12.4749C14.7998 12.1499 15.0576 11.764 15.2335 11.3394C15.4093 10.9148 15.4999 10.4596 15.4999 10C15.4999 9.54037 15.4093 9.08525 15.2335 8.66061C15.0576 8.23597 14.7998 7.85013 14.4748 7.52513C14.1497 7.20012 13.7639 6.94231 13.3393 6.76642C12.9146 6.59053 12.4595 6.5 11.9999 6.5C11.0716 6.5 10.1814 6.86875 9.525 7.52513C8.86863 8.1815 8.49988 9.07174 8.49988 10C8.49988 10.9283 8.86863 11.8185 9.525 12.4749C10.1814 13.1313 11.0716 13.5 11.9999 13.5Z" fill="#161616"/>
</g>
</svg>
