<svg width="50" height="50" viewBox="0 0 50 50" fill="none" xmlns="http://www.w3.org/2000/svg">
<g id="lucide/wrench">
<path id="Vector" d="M30.6253 13.125C30.2436 13.5144 30.0298 14.038 30.0298 14.5833C30.0298 15.1286 30.2436 15.6522 30.6253 16.0416L33.9586 19.375C34.3481 19.7567 34.8717 19.9705 35.417 19.9705C35.9623 19.9705 36.4859 19.7567 36.8753 19.375L44.7295 11.5208C45.777 13.8358 46.0942 16.4151 45.6388 18.9149C45.1833 21.4147 43.9768 23.7163 42.1801 25.5131C40.3833 27.3098 38.0817 28.5163 35.5819 28.9718C33.082 29.4272 30.5028 29.1101 28.1878 28.0625L13.792 42.4583C12.9632 43.2871 11.8391 43.7527 10.667 43.7527C9.49487 43.7527 8.37078 43.2871 7.54198 42.4583C6.71317 41.6295 6.24756 40.5054 6.24756 39.3333C6.24756 38.1612 6.71317 37.0371 7.54198 36.2083L21.9378 21.8125C20.8902 19.4975 20.5731 16.9182 21.0285 14.4184C21.484 11.9186 22.6905 9.61697 24.4872 7.82023C26.284 6.02349 28.5856 4.817 31.0854 4.36152C33.5852 3.90605 36.1645 4.22324 38.4795 5.27081L30.6253 13.125Z" stroke="#3EBF8A" stroke-width="3" stroke-linecap="round" stroke-linejoin="round"/>
</g>
</svg>
