<svg width="24" height="24" viewBox="0 0 24 24" fill="none" xmlns="http://www.w3.org/2000/svg">
<g id="basil:phone-solid">
<path id="Vector" d="M4.99987 9.86001C6.92004 14.0406 10.3313 17.3541 14.5659 19.152L15.2459 19.455C15.9989 19.7903 16.8461 19.8491 17.6382 19.621C18.4303 19.3929 19.1165 18.8925 19.5759 18.208L20.4649 16.884C20.604 16.6764 20.6603 16.4242 20.6227 16.1771C20.5852 15.93 20.4564 15.7059 20.2619 15.549L17.2499 13.119C17.145 13.0344 17.0241 12.9719 16.8944 12.9353C16.7648 12.8986 16.629 12.8885 16.4954 12.9056C16.3617 12.9227 16.2329 12.9666 16.1166 13.0347C16.0004 13.1028 15.8991 13.1938 15.8189 13.302L14.8869 14.559C12.4945 13.3774 10.558 11.4406 9.37687 9.04801L10.6329 8.11601C10.7411 8.03577 10.832 7.93448 10.9002 7.81823C10.9683 7.70198 11.0122 7.57316 11.0293 7.4395C11.0464 7.30585 11.0363 7.17012 10.9996 7.04046C10.9629 6.91081 10.9004 6.7899 10.8159 6.68501L8.38587 3.67301C8.22897 3.47846 8.0049 3.34972 7.75781 3.31215C7.51071 3.27458 7.25851 3.33089 7.05087 3.47001L5.71787 4.36401C5.02927 4.82579 4.52696 5.51702 4.30042 6.31457C4.07388 7.11213 4.13783 7.9642 4.48087 8.71901L4.99987 9.86001Z" fill="#161616"/>
</g>
</svg>
