<svg width="50" height="50" viewBox="0 0 50 50" fill="none" xmlns="http://www.w3.org/2000/svg">
<g id="lucide/brush">
<path id="Vector" d="M18.875 24.7916L35.6875 7.99995C36.2356 7.43421 36.8907 6.98317 37.6148 6.67309C38.3388 6.36302 39.1174 6.20011 39.905 6.19385C40.6926 6.1876 41.4736 6.33812 42.2025 6.63665C42.9314 6.93518 43.5936 7.37576 44.1506 7.93272C44.7076 8.48968 45.1481 9.15189 45.4467 9.88079C45.7452 10.6097 45.8957 11.3907 45.8895 12.1783C45.8832 12.966 45.7203 13.7445 45.4102 14.4685C45.1002 15.1926 44.6491 15.8477 44.0834 16.3958L27.2917 33.2291M14.7292 31.1249C11.2709 31.1249 8.47921 33.9374 8.47921 37.4166C8.47921 40.1874 3.27088 40.5833 4.31255 41.6249C6.56255 43.9166 9.50005 45.8333 12.6459 45.8333C17.2292 45.8333 20.9792 42.0833 20.9792 37.4166C20.982 36.5931 20.8225 35.7771 20.5099 35.0153C20.1972 34.2534 19.7376 33.5606 19.1573 32.9764C18.5769 32.3921 17.8871 31.9279 17.1274 31.6102C16.3676 31.2926 15.5527 31.1277 14.7292 31.1249Z" stroke="#D99D1A" stroke-width="3" stroke-linecap="round" stroke-linejoin="round"/>
</g>
</svg>
