<svg width="56" height="56" viewBox="0 0 56 56" fill="none" xmlns="http://www.w3.org/2000/svg">
<g id="lucide/circle-dollar-sign">
<path id="Vector" d="M37.3333 18.6667H23.3333C22.0956 18.6667 20.9087 19.1584 20.0335 20.0336C19.1583 20.9088 18.6667 22.0957 18.6667 23.3334C18.6667 24.5711 19.1583 25.7581 20.0335 26.6332C20.9087 27.5084 22.0956 28.0001 23.3333 28.0001H32.6667C33.9043 28.0001 35.0913 28.4917 35.9665 29.3669C36.8417 30.2421 37.3333 31.4291 37.3333 32.6667C37.3333 33.9044 36.8417 35.0914 35.9665 35.9666C35.0913 36.8418 33.9043 37.3334 32.6667 37.3334H18.6667M28 42.0001V14.0001M51.3333 28.0001C51.3333 40.8867 40.8866 51.3334 28 51.3334C15.1133 51.3334 4.66666 40.8867 4.66666 28.0001C4.66666 15.1134 15.1133 4.66675 28 4.66675C40.8866 4.66675 51.3333 15.1134 51.3333 28.0001Z" stroke="#161616" stroke-width="2" stroke-linecap="round" stroke-linejoin="round"/>
</g>
</svg>
