<svg width="24" height="25" viewBox="0 0 24 25" fill="none" xmlns="http://www.w3.org/2000/svg">
<g id="lucide/file-pen-line">
<path id="Vector" d="M18 5.5L15.586 3.086C15.211 2.7109 14.7024 2.50011 14.172 2.5H6C5.46957 2.5 4.96086 2.71071 4.58579 3.08579C4.21071 3.46086 4 3.96957 4 4.5V20.5C4 21.0304 4.21071 21.5391 4.58579 21.9142C4.96086 22.2893 5.46957 22.5 6 22.5H18C18.5304 22.5 19.0391 22.2893 19.4142 21.9142C19.7893 21.5391 20 21.0304 20 20.5M8 18.5H9M21.378 13.126C21.7764 12.7276 22.0001 12.1874 22.0001 11.624C22.0001 11.0606 21.7764 10.5204 21.378 10.122C20.9796 9.72364 20.4394 9.49985 19.876 9.49985C19.3126 9.49985 18.7724 9.72364 18.374 10.122L14.364 14.134C14.1262 14.3716 13.9522 14.6653 13.858 14.988L13.021 17.858C12.9959 17.944 12.9944 18.0353 13.0166 18.1221C13.0389 18.2089 13.0841 18.2882 13.1474 18.3516C13.2108 18.4149 13.2901 18.4601 13.3769 18.4824C13.4637 18.5046 13.555 18.5031 13.641 18.478L16.511 17.641C16.8337 17.5468 17.1274 17.3728 17.365 17.135L21.378 13.126Z" stroke="#1C75BC" stroke-width="2" stroke-linecap="round" stroke-linejoin="round"/>
</g>
</svg>
