<svg width="24" height="25" viewBox="0 0 24 25" fill="none" xmlns="http://www.w3.org/2000/svg">
<g id="file-icons:microsoft-powerpoint" clip-path="url(#clip0_423_614)">
<path id="Vector" d="M22.9077 3.72055H14.1671V1.26758H12.6217L0 3.4535V22.5265L12.4718 24.7069H14.1671V21.9814H22.3463C22.8123 21.9596 23.3302 22.0059 23.7281 21.717C24.0442 21.2292 23.9676 20.6186 23.9949 20.0681V4.78897C24.0576 4.16211 23.5346 3.66059 22.9077 3.72055ZM7.99383 13.8921C7.37517 14.2082 6.66652 14.1646 5.99334 14.1428L5.99062 17.3398L4.36894 17.2035L4.37166 8.46837C5.85164 8.5392 7.64498 7.88239 8.87147 8.99164C10.0462 10.4171 9.73542 13.039 7.99383 13.8921ZM22.6925 20.6951H14.1671V18.9833H20.7082V17.8932H14.1671V16.5304H20.7082V15.4402H14.1698C14.1698 15.4402 14.1671 14.3718 14.1644 13.8376C15.2437 14.1728 16.4729 14.1647 17.4376 13.516C18.4815 12.8973 19.0266 11.7172 19.1166 10.5398H15.5298V6.98028L14.1671 7.25558V5.00684H22.6925V20.6951ZM16.0747 6.41061C17.9689 6.4978 19.5636 8.09909 19.6644 9.98787H16.0747V6.41061ZM5.99062 9.94283C6.52753 9.91831 7.19255 9.8202 7.55503 10.3244C7.86576 10.8586 7.84941 11.5618 7.59047 12.1123C7.27978 12.6738 6.57656 12.6193 6.03422 12.6847C5.97703 11.7717 5.98242 10.8586 5.99062 9.94283Z" fill="#1C75BC"/>
</g>
<defs>
<clipPath id="clip0_423_614">
<rect width="24" height="24" fill="white" transform="translate(0 0.988281)"/>
</clipPath>
</defs>
</svg>
