<svg width="80" height="80" viewBox="0 0 80 80" fill="none" xmlns="http://www.w3.org/2000/svg">
<path d="M46 14.0003C46 13.0172 45.7585 12.0492 45.2967 11.1814C44.8349 10.3135 44.1669 9.57246 43.3515 9.02333C42.5361 8.47421 41.5983 8.13384 40.6205 8.03217C39.6427 7.93051 38.6549 8.07065 37.744 8.44028L14.24 17.9803C12.3956 18.7287 10.8166 20.0105 9.70492 21.6615C8.59328 23.3126 7.99964 25.2579 8 27.2483V50.0883C8.00005 51.0739 8.24288 52.0442 8.70703 52.9137C9.17118 53.7831 9.84236 54.5248 10.6613 55.0733C11.4801 55.6217 12.4215 55.96 13.4022 56.0582C14.3829 56.1564 15.3726 56.0115 16.284 55.6363L42.284 44.9283C43.3834 44.4757 44.3235 43.7068 44.9851 42.719C45.6467 41.7312 45.9999 40.5692 46 39.3803V14.0003Z" fill="url(#paint0_linear_524_532)"/>
<path d="M58 22.0003C58 21.0172 57.7585 20.0492 57.2967 19.1814C56.8349 18.3135 56.1669 17.5725 55.3515 17.0233C54.5361 16.4742 53.5983 16.1338 52.6205 16.0322C51.6427 15.9305 50.6549 16.0707 49.744 16.4403L24.992 26.4883C23.5169 27.0868 22.2539 28.1119 21.3646 29.4323C20.4753 30.7527 20.0002 32.3084 20 33.9003V58.0883C20 59.0739 20.2429 60.0442 20.707 60.9137C21.1712 61.7831 21.8424 62.5248 22.6613 63.0733C23.4801 63.6217 24.4215 63.96 25.4022 64.0582C26.3829 64.1564 27.3726 64.0115 28.284 63.6363L54.284 52.9283C55.3834 52.4757 56.3235 51.7068 56.9851 50.719C57.6467 49.7312 57.9999 48.5692 58 47.3803V22.0003Z" fill="url(#paint1_linear_524_532)"/>
<path d="M72 30.0058C72.0003 29.0222 71.7588 28.0537 71.2968 27.1854C70.8348 26.3171 70.1664 25.5757 69.3504 25.0265C68.5345 24.4773 67.596 24.137 66.6177 24.0358C65.6394 23.9345 64.6511 24.0753 63.74 24.4458L39.74 34.1938C38.6343 34.6434 37.6877 35.4126 37.0215 36.4031C36.3553 37.3935 35.9996 38.5602 36 39.7538V66.1178C35.9997 67.1014 36.2412 68.0699 36.7032 68.9382C37.1652 69.8065 37.8336 70.5479 38.6496 71.0971C39.4655 71.6464 40.404 71.9866 41.3823 72.0878C42.3606 72.1891 43.3489 72.0483 44.26 71.6778L68.26 61.9298C69.3657 61.4802 70.3123 60.711 70.9785 59.7206C71.6447 58.7301 72.0004 57.5635 72 56.3698V30.0058Z" fill="url(#paint2_linear_524_532)"/>
<defs>
<linearGradient id="paint0_linear_524_532" x1="9.356" y1="17.0123" x2="41.94" y2="43.7563" gradientUnits="userSpaceOnUse">
<stop stop-color="#0078D4"/>
<stop offset="1" stop-color="#1B44B1"/>
</linearGradient>
<linearGradient id="paint1_linear_524_532" x1="21.356" y1="25.0123" x2="53.94" y2="51.7563" gradientUnits="userSpaceOnUse">
<stop stop-color="#0FAFFF"/>
<stop offset="1" stop-color="#2764E7"/>
</linearGradient>
<linearGradient id="paint2_linear_524_532" x1="37.284" y1="33.0218" x2="69.496" y2="58.0538" gradientUnits="userSpaceOnUse">
<stop stop-color="#6CE0FF"/>
<stop offset="1" stop-color="#58AAFE"/>
</linearGradient>
</defs>
</svg>
