<svg width="81" height="80" viewBox="0 0 81 80" fill="none" xmlns="http://www.w3.org/2000/svg">
<path d="M38.167 55C50.5934 55 60.667 44.9264 60.667 32.5C60.667 20.0736 50.5934 10 38.167 10C25.7406 10 15.667 20.0736 15.667 32.5C15.667 44.9264 25.7406 55 38.167 55Z" fill="url(#paint0_radial_524_493)"/>
<path d="M38.167 55C50.5934 55 60.667 44.9264 60.667 32.5C60.667 20.0736 50.5934 10 38.167 10C25.7406 10 15.667 20.0736 15.667 32.5C15.667 44.9264 25.7406 55 38.167 55Z" fill="url(#paint1_radial_524_493)" fill-opacity="0.6"/>
<path d="M38.167 55C50.5934 55 60.667 44.9264 60.667 32.5C60.667 20.0736 50.5934 10 38.167 10C25.7406 10 15.667 20.0736 15.667 32.5C15.667 44.9264 25.7406 55 38.167 55Z" fill="url(#paint2_radial_524_493)" fill-opacity="0.6"/>
<path d="M65.667 30H45.667C40.1441 30 35.667 34.4772 35.667 40V60C35.667 65.5228 40.1441 70 45.667 70H65.667C71.1898 70 75.667 65.5228 75.667 60V40C75.667 34.4772 71.1898 30 65.667 30Z" fill="url(#paint3_radial_524_493)"/>
<path fill-rule="evenodd" clip-rule="evenodd" d="M38.167 55C41.333 55.0006 44.4636 54.333 47.3539 53.0409C50.2443 51.7488 52.8295 49.8612 54.9404 47.5016C57.0513 45.142 58.6405 42.3634 59.604 39.3476C60.5676 36.3317 60.8838 33.1464 60.532 30H45.667C43.0148 30 40.4713 31.0536 38.5959 32.9289C36.7206 34.8043 35.667 37.3478 35.667 40V54.865C36.487 54.955 37.3203 55 38.167 55Z" fill="url(#paint4_linear_524_493)"/>
<path fill-rule="evenodd" clip-rule="evenodd" d="M38.167 55C41.333 55.0006 44.4636 54.333 47.3539 53.0409C50.2443 51.7488 52.8295 49.8612 54.9404 47.5016C57.0513 45.142 58.6405 42.3634 59.604 39.3476C60.5676 36.3317 60.8838 33.1464 60.532 30H45.667C43.0148 30 40.4713 31.0536 38.5959 32.9289C36.7206 34.8043 35.667 37.3478 35.667 40V54.865C36.487 54.955 37.3203 55 38.167 55Z" fill="url(#paint5_linear_524_493)"/>
<path d="M25.667 48.59C25.667 65.84 20.357 74.84 15.667 74.84C11.607 74.84 5.66699 67.37 5.66699 48.59C5.66699 32.55 10.142 30 15.667 30C20.587 30 25.667 31.34 25.667 48.59Z" fill="url(#paint6_linear_524_493)"/>
<path d="M25.667 48.59C25.667 65.84 20.357 74.84 15.667 74.84C11.607 74.84 5.66699 67.37 5.66699 48.59C5.66699 32.55 10.142 30 15.667 30C20.587 30 25.667 31.34 25.667 48.59Z" fill="url(#paint7_radial_524_493)" fill-opacity="0.5"/>
<path d="M25.667 48.59C25.667 65.84 20.357 74.84 15.667 74.84C11.607 74.84 5.66699 67.37 5.66699 48.59C5.66699 32.55 10.142 30 15.667 30C20.587 30 25.667 31.34 25.667 48.59Z" fill="url(#paint8_linear_524_493)"/>
<path d="M25.667 48.59C25.667 65.84 20.357 74.84 15.667 74.84C11.607 74.84 5.66699 67.37 5.66699 48.59C5.66699 32.55 10.142 30 15.667 30C20.587 30 25.667 31.34 25.667 48.59Z" fill="url(#paint9_radial_524_493)" fill-opacity="0.7"/>
<path d="M5.89648 42.885C6.87648 31.92 10.8765 30 15.6665 30C19.9815 30 24.4165 31.03 25.4415 42.885C22.457 44.5532 19.0905 45.4181 15.6715 45.395C12.2508 45.419 8.88246 44.5541 5.89648 42.885Z" fill="white" fill-opacity="0.15"/>
<path d="M18.567 5.6248C18.9717 5.98044 19.2507 6.45732 19.3625 6.9844C19.4742 7.51147 19.4126 8.06054 19.187 8.5498C19.1288 8.71518 19.1 8.88948 19.102 9.0648C19.102 9.3798 19.182 9.9798 19.937 10.7298C20.597 11.3948 20.982 11.7048 21.737 12.4398C22.387 13.0598 23.072 13.7898 23.687 14.7048C24.962 16.6198 25.667 19.0148 25.667 22.4998C25.667 29.8498 20.782 34.9998 15.667 34.9998C10.552 34.9998 5.66699 29.8498 5.66699 22.4998C5.66699 18.8998 7.17699 14.9648 9.11199 11.9698C10.267 10.0198 11.892 8.3848 13.152 7.2848C13.9087 6.6148 14.702 5.99313 15.532 5.4198C15.9905 5.11418 16.5371 4.96859 17.0868 5.00567C17.6366 5.04274 18.1587 5.2604 18.572 5.6248" fill="url(#paint10_radial_524_493)"/>
<defs>
<radialGradient id="paint0_radial_524_493" cx="0" cy="0" r="1" gradientUnits="userSpaceOnUse" gradientTransform="translate(19.847 66.005) rotate(-78.382) scale(60.876 60.8755)">
<stop offset="0.222" stop-color="#4E46E2"/>
<stop offset="0.578" stop-color="#625DF6"/>
<stop offset="0.955" stop-color="#E37DFF"/>
</radialGradient>
<radialGradient id="paint1_radial_524_493" cx="0" cy="0" r="1" gradientUnits="userSpaceOnUse" gradientTransform="translate(9.75699 44.315) rotate(-17.281) scale(24.575 32.1685)">
<stop offset="0.566" stop-color="#251FBA"/>
<stop offset="1" stop-color="#5E51E4" stop-opacity="0"/>
</radialGradient>
<radialGradient id="paint2_radial_524_493" cx="0" cy="0" r="1" gradientUnits="userSpaceOnUse" gradientTransform="translate(8.07199 27.625) rotate(8.25943) scale(22.6058 23.1075)">
<stop offset="0.566" stop-color="#251FBA"/>
<stop offset="1" stop-color="#5E51E4" stop-opacity="0"/>
</radialGradient>
<radialGradient id="paint3_radial_524_493" cx="0" cy="0" r="1" gradientUnits="userSpaceOnUse" gradientTransform="translate(40.7773 32.8553) rotate(42.462) scale(47.2952 64.2395)">
<stop stop-color="#C354FF"/>
<stop offset="0.158" stop-color="#B339F0"/>
<stop offset="0.429" stop-color="#F24A9D"/>
<stop offset="0.749" stop-color="#FF835C"/>
<stop offset="1" stop-color="#FFC470"/>
</radialGradient>
<linearGradient id="paint4_linear_524_493" x1="58.627" y1="55.155" x2="38.282" y2="25.255" gradientUnits="userSpaceOnUse">
<stop offset="0.195" stop-color="#6D37CD"/>
<stop offset="0.765" stop-color="#EA71EF"/>
</linearGradient>
<linearGradient id="paint5_linear_524_493" x1="62.932" y1="62.19" x2="30.487" y2="16.835" gradientUnits="userSpaceOnUse">
<stop offset="0.195" stop-color="#7631FF"/>
<stop offset="0.886" stop-color="#E63080"/>
</linearGradient>
<linearGradient id="paint6_linear_524_493" x1="0.981992" y1="49.035" x2="20.917" y2="72.495" gradientUnits="userSpaceOnUse">
<stop stop-color="#0FAFFF"/>
<stop offset="1" stop-color="#2764E7"/>
</linearGradient>
<radialGradient id="paint7_radial_524_493" cx="0" cy="0" r="1" gradientUnits="userSpaceOnUse" gradientTransform="translate(14.832 27.2) rotate(80.269) scale(44.6784 122.405)">
<stop offset="0.5" stop-color="#DD3CE2" stop-opacity="0"/>
<stop offset="1" stop-color="#DD3CE2"/>
</radialGradient>
<linearGradient id="paint8_linear_524_493" x1="33.167" y1="50.54" x2="-1.83301" y2="50.54" gradientUnits="userSpaceOnUse">
<stop offset="0.307" stop-color="#0D91E1"/>
<stop offset="0.761" stop-color="#52B471"/>
</linearGradient>
<radialGradient id="paint9_radial_524_493" cx="0" cy="0" r="1" gradientUnits="userSpaceOnUse" gradientTransform="translate(9.85699 30) rotate(-73.0638) scale(23.098 40.7944)">
<stop offset="0.169" stop-color="#02888D"/>
<stop offset="0.26" stop-color="#02888D" stop-opacity="0"/>
</radialGradient>
<radialGradient id="paint10_radial_524_493" cx="0" cy="0" r="1" gradientUnits="userSpaceOnUse" gradientTransform="translate(19.9108 14.8036) rotate(106.553) scale(22.8289 22.8424)">
<stop stop-color="#FF9532"/>
<stop offset="0.251" stop-color="#FF835C"/>
<stop offset="1" stop-color="#F24A9D"/>
</radialGradient>
</defs>
</svg>
