<svg width="50" height="50" viewBox="0 0 50 50" fill="none" xmlns="http://www.w3.org/2000/svg">
<g id="lucide/palette">
<g id="Vector">
<path d="M28.1248 14.5833C28.7001 14.5833 29.1665 14.1169 29.1665 13.5416C29.1665 12.9663 28.7001 12.5 28.1248 12.5C27.5495 12.5 27.0832 12.9663 27.0832 13.5416C27.0832 14.1169 27.5495 14.5833 28.1248 14.5833Z" stroke="#C86AB7" stroke-width="3" stroke-linecap="round" stroke-linejoin="round"/>
<path d="M36.4582 22.9166C37.0335 22.9166 37.4998 22.4503 37.4998 21.875C37.4998 21.2997 37.0335 20.8333 36.4582 20.8333C35.8829 20.8333 35.4165 21.2997 35.4165 21.875C35.4165 22.4503 35.8829 22.9166 36.4582 22.9166Z" stroke="#C86AB7" stroke-width="3" stroke-linecap="round" stroke-linejoin="round"/>
<path d="M17.7082 16.6666C18.2835 16.6666 18.7498 16.2003 18.7498 15.625C18.7498 15.0497 18.2835 14.5833 17.7082 14.5833C17.1329 14.5833 16.6665 15.0497 16.6665 15.625C16.6665 16.2003 17.1329 16.6666 17.7082 16.6666Z" stroke="#C86AB7" stroke-width="3" stroke-linecap="round" stroke-linejoin="round"/>
<path d="M13.5415 27.0833C14.1168 27.0833 14.5832 26.6169 14.5832 26.0416C14.5832 25.4663 14.1168 25 13.5415 25C12.9662 25 12.4998 25.4663 12.4998 26.0416C12.4998 26.6169 12.9662 27.0833 13.5415 27.0833Z" stroke="#C86AB7" stroke-width="3" stroke-linecap="round" stroke-linejoin="round"/>
<path d="M24.9998 4.16663C13.5415 4.16663 4.1665 13.5416 4.1665 25C4.1665 36.4583 13.5415 45.8333 24.9998 45.8333C26.929 45.8333 28.4332 44.2791 28.4332 42.3166C28.4332 41.4062 28.0582 40.577 27.5228 39.9729C26.9186 39.3708 26.6103 38.6145 26.6103 37.6291C26.6024 37.1706 26.6868 36.7152 26.8587 36.29C27.0305 35.8648 27.2862 35.4786 27.6105 35.1543C27.9347 34.8301 28.321 34.5744 28.7461 34.4026C29.1713 34.2307 29.6267 34.1462 30.0853 34.1541H34.2436C40.5998 34.1541 45.8165 28.9395 45.8165 22.5833C45.7603 12.525 36.3769 4.16663 24.9998 4.16663Z" stroke="#C86AB7" stroke-width="3" stroke-linecap="round" stroke-linejoin="round"/>
</g>
</g>
</svg>
