<svg width="25" height="25" viewBox="0 0 25 25" fill="none" xmlns="http://www.w3.org/2000/svg">
<g id="simple-icons:googleslides" clip-path="url(#clip0_423_620)">
<path id="Vector" d="M16.5904 16.2613H8.41044V11.6243H16.5904V16.2613ZM18.3184 7.73828H21.2284V23.3523C21.2284 24.2563 20.4954 24.9883 19.5914 24.9883H5.40944C5.19459 24.9883 4.98186 24.946 4.78337 24.8637C4.58488 24.7815 4.40453 24.661 4.25261 24.5091C3.9458 24.2023 3.77344 23.7862 3.77344 23.3523V2.62428C3.77344 1.72028 4.50544 0.988281 5.40944 0.988281H14.4774V7.73828H18.3184ZM17.9554 10.2613H7.04544V17.6243H17.9554V10.2613ZM15.2274 4.28228V6.98828H21.2284L15.2284 0.988281L15.2274 4.28228Z" fill="#1C75BC"/>
</g>
<defs>
<clipPath id="clip0_423_620">
<rect width="24" height="24" fill="white" transform="translate(0.5 0.988281)"/>
</clipPath>
</defs>
</svg>
