<svg width="50" height="50" viewBox="0 0 50 50" fill="none" xmlns="http://www.w3.org/2000/svg">
<g id="lucide/sparkles">
<path id="Vector" d="M41.6667 6.24999V14.5833M45.8334 10.4167H37.5001M8.33341 35.4167V39.5833M10.4167 37.5H6.25008M20.7022 32.2917C20.5162 31.5707 20.1404 30.9127 19.6139 30.3862C19.0874 29.8597 18.4294 29.4839 17.7084 29.2979L4.92716 26.0021C4.7091 25.9402 4.51718 25.8088 4.38052 25.628C4.24386 25.4472 4.16992 25.2267 4.16992 25C4.16992 24.7733 4.24386 24.5528 4.38052 24.372C4.51718 24.1911 4.7091 24.0598 4.92716 23.9979L17.7084 20.7C18.4291 20.5142 19.0869 20.1387 19.6134 19.6126C20.1399 19.0865 20.5158 18.4289 20.7022 17.7083L23.998 4.92707C24.0593 4.70815 24.1905 4.51529 24.3716 4.3779C24.5527 4.24051 24.7738 4.16614 25.0011 4.16614C25.2285 4.16614 25.4495 4.24051 25.6307 4.3779C25.8118 4.51529 25.943 4.70815 26.0042 4.92707L29.298 17.7083C29.484 18.4293 29.8598 19.0873 30.3863 19.6138C30.9128 20.1403 31.5708 20.5161 32.2917 20.7021L45.073 23.9958C45.2928 24.0564 45.4866 24.1875 45.6247 24.3689C45.7629 24.5503 45.8377 24.772 45.8377 25C45.8377 25.228 45.7629 25.4497 45.6247 25.6311C45.4866 25.8125 45.2928 25.9435 45.073 26.0042L32.2917 29.2979C31.5708 29.4839 30.9128 29.8597 30.3863 30.3862C29.8598 30.9127 29.484 31.5707 29.298 32.2917L26.0022 45.0729C25.9409 45.2918 25.8097 45.4847 25.6286 45.6221C25.4475 45.7595 25.2264 45.8338 24.999 45.8338C24.7717 45.8338 24.5506 45.7595 24.3695 45.6221C24.1884 45.4847 24.0572 45.2918 23.9959 45.0729L20.7022 32.2917Z" stroke="#0B6BFF" stroke-width="3" stroke-linecap="round" stroke-linejoin="round"/>
</g>
</svg>
