<svg width="24" height="25" viewBox="0 0 24 25" fill="none" xmlns="http://www.w3.org/2000/svg">
<g id="lucide/square-mouse-pointer">
<path id="Vector" d="M21 11.9766V5.97656C21 5.44613 20.7893 4.93742 20.4142 4.56235C20.0391 4.18728 19.5304 3.97656 19 3.97656H5C4.46957 3.97656 3.96086 4.18728 3.58579 4.56235C3.21071 4.93742 3 5.44613 3 5.97656V19.9766C3 20.507 3.21071 21.0157 3.58579 21.3908C3.96086 21.7658 4.46957 21.9766 5 21.9766H11M12.034 13.6576C11.998 13.5671 11.9892 13.4681 12.0088 13.3727C12.0285 13.2774 12.0756 13.1899 12.1445 13.121C12.2133 13.0522 12.3008 13.005 12.3962 12.9854C12.4915 12.9658 12.5906 12.9745 12.681 13.0106L21.681 16.5106C21.7775 16.5483 21.8599 16.615 21.9168 16.7016C21.9737 16.7881 22.0023 16.8902 21.9987 16.9938C21.9951 17.0973 21.9594 17.1971 21.8966 17.2795C21.8338 17.3619 21.7469 17.4227 21.648 17.4536L18.204 18.5216C18.0486 18.5696 17.9073 18.6548 17.7923 18.7698C17.6773 18.8848 17.592 19.0262 17.544 19.1816L16.477 22.6246C16.4461 22.7235 16.3853 22.8103 16.3029 22.8731C16.2206 22.936 16.1207 22.9717 16.0172 22.9753C15.9137 22.9789 15.8116 22.9503 15.725 22.8934C15.6384 22.8364 15.5717 22.7541 15.534 22.6576L12.034 13.6576Z" stroke="#1C75BC" stroke-width="2" stroke-linecap="round" stroke-linejoin="round"/>
</g>
</svg>
