<svg width="16" height="16" viewBox="0 0 16 16" fill="none" xmlns="http://www.w3.org/2000/svg">
<g id="lucide/tag" clip-path="url(#clip0_346_154)">
<g id="Vector">
<path d="M5.00016 5.3335C5.18426 5.3335 5.3335 5.18426 5.3335 5.00016C5.3335 4.81607 5.18426 4.66683 5.00016 4.66683C4.81607 4.66683 4.66683 4.81607 4.66683 5.00016C4.66683 5.18426 4.81607 5.3335 5.00016 5.3335Z" fill="#0B6BFF"/>
<path d="M8.39083 1.72416C8.14084 1.4741 7.80176 1.33357 7.44816 1.3335H2.66683C2.31321 1.3335 1.97407 1.47397 1.72402 1.72402C1.47397 1.97407 1.3335 2.31321 1.3335 2.66683V7.44816C1.33357 7.80176 1.4741 8.14084 1.72416 8.39083L7.52683 14.1935C7.82984 14.4946 8.23966 14.6636 8.66683 14.6636C9.094 14.6636 9.50382 14.4946 9.80683 14.1935L14.1935 9.80683C14.4946 9.50382 14.6636 9.094 14.6636 8.66683C14.6636 8.23966 14.4946 7.82984 14.1935 7.52683L8.39083 1.72416Z" stroke="#0B6BFF" stroke-width="1.33333" stroke-linecap="round" stroke-linejoin="round"/>
<path d="M5.00016 5.3335C5.18426 5.3335 5.3335 5.18426 5.3335 5.00016C5.3335 4.81607 5.18426 4.66683 5.00016 4.66683C4.81607 4.66683 4.66683 4.81607 4.66683 5.00016C4.66683 5.18426 4.81607 5.3335 5.00016 5.3335Z" stroke="#0B6BFF" stroke-width="1.33333" stroke-linecap="round" stroke-linejoin="round"/>
</g>
</g>
<defs>
<clipPath id="clip0_346_154">
<rect width="16" height="16" fill="white"/>
</clipPath>
</defs>
</svg>
