<svg width="56" height="61" viewBox="0 0 56 61" fill="none" xmlns="http://www.w3.org/2000/svg">
<g id="lucide/zap" filter="url(#filter0_d_43_136)">
<path id="Vector" d="M9.33333 32.6665C8.89178 32.668 8.45887 32.5442 8.08489 32.3094C7.71091 32.0747 7.41121 31.7386 7.22062 31.3403C7.03002 30.942 6.95635 30.4978 7.00817 30.0593C7.05998 29.6208 7.23515 29.206 7.51333 28.8631L30.6133 5.06314C30.7866 4.86313 31.0227 4.72798 31.283 4.67985C31.5432 4.63173 31.812 4.67351 32.0454 4.79832C32.2787 4.92313 32.4627 5.12357 32.5671 5.36673C32.6715 5.60989 32.6902 5.88132 32.62 6.13648L28.14 20.1831C28.0079 20.5367 27.9635 20.917 28.0107 21.2915C28.0579 21.666 28.1952 22.0234 28.4109 22.3331C28.6265 22.6429 28.9141 22.8957 29.249 23.0699C29.5838 23.244 29.9559 23.3344 30.3333 23.3331H46.6667C47.1082 23.3316 47.5411 23.4555 47.9151 23.6902C48.2891 23.9249 48.5888 24.261 48.7794 24.6593C48.97 25.0576 49.0436 25.5018 48.9918 25.9403C48.94 26.3788 48.7648 26.7936 48.4867 27.1365L25.3867 50.9365C25.2134 51.1365 24.9773 51.2716 24.717 51.3198C24.4568 51.3679 24.188 51.3261 23.9546 51.2013C23.7213 51.0765 23.5373 50.8761 23.4329 50.6329C23.3285 50.3897 23.3098 50.1183 23.38 49.8631L27.86 35.8165C27.9921 35.4629 28.0365 35.0826 27.9893 34.7081C27.9421 34.3337 27.8048 33.9762 27.5891 33.6665C27.3735 33.3567 27.0859 33.1039 26.751 32.9298C26.4162 32.7556 26.0441 32.6653 25.6667 32.6665H9.33333Z" stroke="#161616" stroke-width="2" stroke-linecap="round" stroke-linejoin="round"/>
</g>
<defs>
<filter id="filter0_d_43_136" x="-4" y="0" width="64" height="64" filterUnits="userSpaceOnUse" color-interpolation-filters="sRGB">
<feFlood flood-opacity="0" result="BackgroundImageFix"/>
<feColorMatrix in="SourceAlpha" type="matrix" values="0 0 0 0 0 0 0 0 0 0 0 0 0 0 0 0 0 0 127 0" result="hardAlpha"/>
<feOffset dy="4"/>
<feGaussianBlur stdDeviation="2"/>
<feComposite in2="hardAlpha" operator="out"/>
<feColorMatrix type="matrix" values="0 0 0 0 0 0 0 0 0 0 0 0 0 0 0 0 0 0 0.25 0"/>
<feBlend mode="normal" in2="BackgroundImageFix" result="effect1_dropShadow_43_136"/>
<feBlend mode="normal" in="SourceGraphic" in2="effect1_dropShadow_43_136" result="shape"/>
</filter>
</defs>
</svg>
